HIERARCHY
ROOT Hips
{
	OFFSET 0.000000 0.000000 0.000000
	CHANNELS 6 Xposition Yposition Zposition Xrotation Yrotation Zrotation
	JOINT LeftUpLeg_virtual
	{
		OFFSET 0.000000 0.000000 0.000000
		CHANNELS 3 Xrotation Yrotation Zrotation
		JOINT LeftUpLeg
		{
			OFFSET 15.427100 -6.655098 0.678600
			CHANNELS 3 Xrotation Yrotation Zrotation
			JOINT LeftLeg
			{
				OFFSET 4.081073 -39.591068 13.024000
				CHANNELS 3 Xrotation Yrotation Zrotation
				JOINT LeftFoot
				{
					OFFSET -4.081074 -37.707932 -15.979700
					CHANNELS 3 Xrotation Yrotation Zrotation
					JOINT LeftToeBase
					{
						OFFSET 5.346399 -15.068900 20.645000
						CHANNELS 3 Xrotation Yrotation Zrotation
						JOINT LeftToe_End
						{
							OFFSET 2.754700 0.931300 11.300900
							CHANNELS 3 Xrotation Yrotation Zrotation
							End Site
							{
								OFFSET 0 0 0
							}
						}
					}
				}
			}
		}
	}
	JOINT RightUpLeg_virtual
	{
		OFFSET 0.000000 0.000000 0.000000
		CHANNELS 3 Xrotation Yrotation Zrotation
		JOINT RightUpLeg
		{
			OFFSET -15.569500 -6.655098 0.678600
			CHANNELS 3 Xrotation Yrotation Zrotation
			JOINT RightLeg
			{
				OFFSET -4.081825 -39.591045 13.023800
				CHANNELS 3 Xrotation Yrotation Zrotation
				JOINT RightFoot
				{
					OFFSET 4.081824 -37.707954 -15.979600
					CHANNELS 3 Xrotation Yrotation Zrotation
					JOINT RightToeBase
					{
						OFFSET -5.346400 -15.068900 20.645000
						CHANNELS 3 Xrotation Yrotation Zrotation
						JOINT RightToe_End
						{
							OFFSET -2.754700 0.931300 11.300900
							CHANNELS 3 Xrotation Yrotation Zrotation
							End Site
							{
								OFFSET 0 0 0
							}
						}
					}
				}
			}
		}
	}
	JOINT Spine_virtual
	{
		OFFSET 0.000000 0.000000 0.000000
		CHANNELS 3 Xrotation Yrotation Zrotation
		JOINT Spine
		{
			OFFSET -0.279200 12.230698 -2.892100
			CHANNELS 3 Xrotation Yrotation Zrotation
			JOINT Spine1
			{
				OFFSET -0.232667 10.192268 -1.242267
				CHANNELS 3 Xrotation Yrotation Zrotation
				JOINT Spine1_split
				{
					OFFSET -0.232667 10.192268 -1.242267
					CHANNELS 3 Xrotation Yrotation Zrotation
					JOINT Spine2
					{
						OFFSET -0.232667 10.192268 -1.242267
						CHANNELS 3 Xrotation Yrotation Zrotation
						JOINT Neck_virtual
						{
							OFFSET 0.000000 0.000000 0.000000
							CHANNELS 3 Xrotation Yrotation Zrotation
							JOINT Neck
							{
								OFFSET -0.418800 17.814194 8.416900
								CHANNELS 3 Xrotation Yrotation Zrotation
								JOINT Head
								{
									OFFSET 0.000000 7.031097 3.806800
									CHANNELS 3 Xrotation Yrotation Zrotation
									JOINT HeadTop_End
									{
										OFFSET 0.000000 24.646606 12.978600
										CHANNELS 3 Xrotation Yrotation Zrotation
										End Site
										{
											OFFSET 0 0 0
										}
									}
								}
							}
						}
						JOINT LeftShoulder_virtual
						{
							OFFSET 0.000000 0.000000 0.000000
							CHANNELS 3 Xrotation Yrotation Zrotation
							JOINT LeftShoulder
							{
								OFFSET 8.476499 7.247704 -3.868750
								CHANNELS 3 Xrotation Yrotation Zrotation
								JOINT LeftShoulder_split
								{
									OFFSET 8.476499 7.247704 -3.868750
									CHANNELS 3 Xrotation Yrotation Zrotation
									JOINT LeftArm
									{
										OFFSET 9.308998 -2.777710 0.208600
										CHANNELS 3 Xrotation Yrotation Zrotation
										JOINT LeftForeArm
										{
											OFFSET 29.972298 0.000000 0.000000
											CHANNELS 3 Xrotation Yrotation Zrotation
											JOINT LeftHand
											{
												OFFSET 26.026505 0.000000 0.000000
												CHANNELS 3 Xrotation Yrotation Zrotation
												End Site
												{
													OFFSET 0 0 0
												}
											}
										}
									}
								}
							}
						}
						JOINT RightShoulder_virtual
						{
							OFFSET 0.000000 0.000000 0.000000
							CHANNELS 3 Xrotation Yrotation Zrotation
							JOINT RightShoulder
							{
								OFFSET -7.570500 7.247704 -3.868750
								CHANNELS 3 Xrotation Yrotation Zrotation
								JOINT RightShoulder_split
								{
									OFFSET -7.570500 7.247704 -3.868750
									CHANNELS 3 Xrotation Yrotation Zrotation
									JOINT RightArm
									{
										OFFSET -9.308998 -2.777710 0.208500
										CHANNELS 3 Xrotation Yrotation Zrotation
										JOINT RightForeArm
										{
											OFFSET -29.972300 0.000000 0.000000
											CHANNELS 3 Xrotation Yrotation Zrotation
											JOINT RightHand
											{
												OFFSET -26.026505 0.000000 0.000000
												CHANNELS 3 Xrotation Yrotation Zrotation
												End Site
												{
													OFFSET 0 0 0
												}
											}
										}
									}
								}
							}
						}
					}
				}
			}
		}
	}
}
MOTION
Frames: 8
Frame Time: 0.03333333
-1.256992 87.621002 -11.968479 0.000000 0.000000 0.000000 3.595500 -39.934419 7.498825 -27.610690 1.559498 14.479557 14.033205 -7.793530 1.547386 12.413320 1.225877 -19.038550 3.763862 -0.586426 -0.527000 0.000000 0.000000 0.000000 3.329741 -39.223461 7.512353 -8.155242 -11.985993 -20.920755 24.530447 7.840810 -5.139634 -16.650891 -20.559851 29.884000 5.169305 6.522404 -9.797777 0.000000 0.000000 0.000000 0.785119 -33.436337 6.032091 -2.455223 12.101520 -3.015896 4.284314 -4.708734 2.580055 0.189423 -0.302204 -0.078687 0.000000 0.000000 0.000000 8.565274 -1.334461 1.380291 -13.412259 -0.788960 11.864860 -1.954117 -26.480225 33.938018 0.000000 0.000000 0.000000 7.110380 -3.896845 0.926142 -4.279225 -19.511875 -25.311385 -4.300089 1.635485 -4.733216 -3.104125 6.254940 -23.810555 60.630544 -32.240648 33.577056 0.000000 0.000000 0.000000 9.405227 -2.840125 1.760127 -6.655595 9.901529 -8.716647 1.869144 9.671818 -1.810616 -87.000074 12.079920 -7.538801 -65.947245 45.384234 56.492768 0.000000 0.000000 0.000000 
-0.258000 87.225700 -11.869038 0.000000 0.000000 0.000000 3.981906 -42.658831 8.181979 -27.456348 2.971691 14.835009 15.354081 -7.602757 1.452947 11.076788 1.461684 -18.780635 3.942039 -0.612967 -0.444125 0.000000 0.000000 0.000000 3.810153 -41.411915 8.168625 -10.682390 -10.868994 -21.907977 25.735794 8.648216 -5.411389 -15.613210 -19.233244 30.106750 4.789944 6.481318 -10.271120 0.000000 0.000000 0.000000 0.838983 -35.687025 6.373387 -2.345820 11.334351 -2.984639 5.054786 -4.145045 2.623633 0.139946 -0.267464 -0.079255 0.000000 0.000000 0.000000 8.868330 -0.712480 1.444361 -14.462669 0.926692 10.680847 -1.162192 -24.612617 27.700138 0.000000 0.000000 0.000000 7.533133 -3.286847 0.897469 -4.004233 -19.642910 -23.887272 -4.272916 1.936860 -5.304067 -3.793318 8.041342 -24.710100 61.460187 -34.018187 35.661265 0.000000 0.000000 0.000000 9.771614 -2.171883 1.806402 -7.836249 10.005491 -4.396090 2.682792 8.500501 -0.104333 -79.556507 12.767793 -4.124097 -70.185467 49.791936 61.245036 0.000000 0.000000 0.000000 
0.629572 86.673538 -11.833515 0.000000 0.000000 0.000000 4.337473 -45.354645 8.894090 -27.412022 4.562179 15.369727 16.805793 -7.435826 1.297647 9.638295 1.757923 -18.362415 4.397855 -0.619965 -0.426079 0.000000 0.000000 0.000000 4.223522 -43.541845 8.804760 -13.352986 -9.587281 -22.827932 27.345130 9.400561 -5.642999 -14.878882 -18.060967 30.168474 4.774186 6.463343 -10.795353 0.000000 0.000000 0.000000 0.990530 -37.797717 6.730051 -1.975696 10.476089 -2.935182 5.767700 -3.743986 2.542201 0.130277 -0.264236 -0.074544 0.000000 0.000000 0.000000 9.158695 -0.235489 1.410524 -15.821343 2.526848 9.842696 -0.633670 -22.715718 21.612587 0.000000 0.000000 0.000000 7.979772 -2.826513 0.787698 -3.706867 -19.788364 -22.193714 -4.205600 2.081511 -5.815121 -4.619547 9.173601 -25.303243 60.635380 -34.895648 36.174741 0.000000 0.000000 0.000000 10.144486 -1.638662 1.769693 -8.876586 10.330724 -0.205147 3.416505 7.603345 1.826018 -71.761389 13.343384 -0.613859 -72.740811 54.152615 63.782765 0.000000 0.000000 0.000000 
1.404915 85.989136 -11.775528 0.000000 0.000000 0.000000 4.548816 -47.758182 9.482329 -27.617522 6.144779 16.087443 18.450614 -7.353509 1.053005 8.206834 1.984812 -17.910827 4.806822 -0.620492 -0.510823 0.000000 0.000000 0.000000 4.504634 -45.455428 9.309146 -15.978295 -8.228256 -23.594154 29.336052 10.102432 -5.816094 -14.331267 -17.015577 30.169997 4.885113 6.480241 -11.296399 0.000000 0.000000 0.000000 1.171447 -39.664001 7.055430 -1.411058 9.569989 -2.843243 6.399991 -3.521378 2.390791 0.132765 -0.281690 -0.055867 0.000000 0.000000 0.000000 9.467201 0.052161 1.334720 -17.463933 4.021936 9.388514 -0.708639 -20.494276 15.506218 0.000000 0.000000 0.000000 8.427998 -2.539115 0.650024 -3.407151 -19.927577 -20.361410 -4.106239 1.975065 -6.349627 -5.554688 9.677856 -25.522387 58.326503 -35.208184 35.310852 0.000000 0.000000 0.000000 10.530463 -1.280768 1.682329 -9.737055 10.838880 3.681046 3.932129 6.710575 3.349001 -63.895088 13.977974 2.796927 -72.188133 58.439768 62.702796 0.000000 0.000000 0.000000 
2.064666 85.191597 -11.777538 0.000000 0.000000 0.000000 4.612319 -49.620255 9.857373 -28.138293 7.532853 16.894288 20.306574 -7.326222 0.737148 6.829420 2.130576 -17.401437 5.004514 -0.614535 -0.683961 0.000000 0.000000 0.000000 4.595094 -47.087942 9.621172 -18.458904 -6.861898 -24.193823 31.494515 10.806979 -5.940769 -13.859402 -15.997141 30.361082 4.786406 6.545678 -11.712736 0.000000 0.000000 0.000000 1.346408 -41.233514 7.349233 -0.716790 8.668422 -2.720349 6.912745 -3.468921 2.205285 0.138649 -0.286010 -0.035804 0.000000 0.000000 0.000000 9.822161 0.140152 1.237655 -19.227717 5.454176 9.273222 -1.272270 -17.772419 9.460682 0.000000 0.000000 0.000000 8.829727 -2.431418 0.516288 -3.133675 -19.992015 -18.488793 -3.876032 1.660066 -6.881956 -6.614817 9.589858 -25.352197 54.898349 -35.253721 33.429661 0.000000 0.000000 0.000000 10.890105 -1.134204 1.556385 -10.388431 11.359177 7.073440 4.229143 6.136968 4.595467 -56.298227 14.723113 5.834149 -67.203440 62.393710 56.785783 0.000000 0.000000 0.000000 
2.583625 84.338799 -11.722446 0.000000 0.000000 0.000000 4.579659 -50.915901 10.034241 -28.927425 8.583894 17.755890 22.313180 -7.393214 0.380298 5.641995 2.185318 -16.935247 5.025212 -0.597024 -0.968654 0.000000 0.000000 0.000000 4.523618 -48.372909 9.763603 -20.659434 -5.577575 -24.659321 33.688412 11.525209 -6.030575 -13.481764 -15.013733 30.739106 4.332736 6.661635 -11.983292 0.000000 0.000000 0.000000 1.426273 -42.499124 7.573090 0.023512 7.813201 -2.623088 7.285113 -3.572659 1.979184 0.094680 -0.295497 -0.026541 0.000000 0.000000 0.000000 10.217048 0.041496 1.112407 -20.948059 6.871667 9.405792 -1.983752 -14.457685 3.729053 0.000000 0.000000 0.000000 9.164924 -2.489191 0.373873 -2.890612 -19.848569 -16.683336 -3.616735 1.316448 -7.411132 -7.892974 9.042653 -24.789789 50.677237 -35.326739 30.890579 0.000000 0.000000 0.000000 11.209087 -1.201095 1.379726 -10.832142 11.780605 9.865162 4.263779 5.193847 5.560976 -49.294759 15.383341 8.351232 -56.930989 65.355970 45.331716 0.000000 0.000000 0.000000 
2.980563 83.517418 -11.603714 0.000000 0.000000 0.000000 4.502529 -51.708278 10.065033 -29.799309 9.289763 18.566664 24.246034 -7.539843 0.013211 4.617064 2.236053 -16.554282 4.841101 -0.564974 -1.328311 0.000000 0.000000 0.000000 4.416601 -49.356088 9.813600 -22.489882 -4.493647 -25.036571 35.755859 12.201831 -6.089672 -13.358105 -14.134279 31.113291 3.894302 6.775558 -12.100530 0.000000 0.000000 0.000000 1.415777 -43.526856 7.741114 0.741707 7.027892 -2.592486 7.538254 -3.788633 1.723183 0.048085 -0.290347 -0.027643 0.000000 0.000000 0.000000 10.591521 -0.197127 0.945774 -22.422396 8.352955 9.660683 -2.491742 -10.613657 -1.373522 0.000000 0.000000 0.000000 9.427403 -2.676061 0.192995 -2.681750 -19.361990 -15.057022 -3.372112 1.017153 -7.848578 -9.228765 8.276092 -23.893518 46.101417 -35.605913 28.057389 0.000000 0.000000 0.000000 11.479915 -1.439628 1.145348 -11.037396 11.985337 11.982039 3.995223 4.189533 6.105886 -43.165716 15.675311 10.326093 -42.727345 66.531875 29.892299 0.000000 0.000000 0.000000 
3.270536 82.741447 -11.445068 0.000000 0.000000 0.000000 4.503314 -52.115935 10.071829 -30.611928 9.703412 19.240680 25.935041 -7.744822 -0.333828 3.696799 2.321060 -16.297395 4.570424 -0.515158 -1.751013 0.000000 0.000000 0.000000 4.352392 -50.099820 9.860958 -23.964993 -3.679586 -25.407831 37.569155 12.761857 -6.082533 -13.609234 -13.443498 31.284677 3.843130 6.846324 -12.087010 0.000000 0.000000 0.000000 1.365369 -44.315968 7.911800 1.415608 6.303072 -2.660796 7.708320 -4.075685 1.436218 0.009229 -0.288966 -0.044833 0.000000 0.000000 0.000000 10.894348 -0.518019 0.736981 -23.513773 9.896280 9.886075 -2.640596 -6.507584 -5.591884 0.000000 0.000000 0.000000 9.624023 -2.952162 -0.033195 -2.499824 -18.454888 -13.640964 -3.084034 0.641852 -8.066786 -10.548086 7.469275 -22.857484 41.497320 -36.146813 25.166981 0.000000 0.000000 0.000000 11.691426 -1.785927 0.861082 -11.022142 11.930567 13.355779 3.632611 3.234267 6.394189 -38.186010 15.465616 11.905393 -28.294275 65.834438 14.372810 0.000000 0.000000 0.000000 
